<svg width="430" height="462" viewBox="0 0 430 462" fill="none" xmlns="http://www.w3.org/2000/svg">
<path d="M188.12 259.243H241.87" stroke="#F127F5"/>
<path d="M188.12 259.243H241.87" stroke="black" stroke-opacity="0.2"/>
<line x1="188.12" y1="160.141" x2="241.87" y2="160.141" stroke="#F127F5"/>
<line x1="188.12" y1="160.141" x2="241.87" y2="160.141" stroke="black" stroke-opacity="0.2"/>
<line y1="423.079" x2="170.207" y2="423.079" stroke="#F127F5"/>
<line y1="423.079" x2="170.207" y2="423.079" stroke="black" stroke-opacity="0.2"/>
<line x1="259.792" y1="423.079" x2="429.999" y2="423.079" stroke="#F127F5"/>
<line x1="259.792" y1="423.079" x2="429.999" y2="423.079" stroke="black" stroke-opacity="0.2"/>
<path d="M89.7972 53.446C87.164 37.3088 107.966 4.22745 212.242 1C260.958 5.03431 354.44 21.1715 338.641 53.446M89.7972 53.446C89.7972 85.7204 171.427 99.1681 212.242 101.858C300.716 101.858 333.372 69.5832 338.641 53.446M89.7972 53.446V166.407M338.641 53.446V170.441M212.242 319.71C126.923 316.483 95.0624 291.47 89.7972 279.367V166.407M212.242 319.71C249.109 317.021 326.001 306.8 338.641 287.436V170.441M212.242 319.71V372.156M338.641 170.441C325.472 185.233 281.756 214.011 212.242 210.784C171.427 209.439 89.7972 198.681 89.7972 166.407M212.242 372.156C197.761 374.846 168.798 387.487 168.798 416.534C171.428 432.671 183.8 464.138 212.242 460.911C225.41 460.911 253.324 452.036 259.644 416.534C258.325 401.741 246.998 372.156 212.242 372.156Z" stroke="#F127F5"/>
<path d="M89.7972 53.446C87.164 37.3088 107.966 4.22745 212.242 1C260.958 5.03431 354.44 21.1715 338.641 53.446M89.7972 53.446C89.7972 85.7204 171.427 99.1681 212.242 101.858C300.716 101.858 333.372 69.5832 338.641 53.446M89.7972 53.446V166.407M338.641 53.446V170.441M212.242 319.71C126.923 316.483 95.0624 291.47 89.7972 279.367V166.407M212.242 319.71C249.109 317.021 326.001 306.8 338.641 287.436V170.441M212.242 319.71V372.156M338.641 170.441C325.472 185.233 281.756 214.011 212.242 210.784C171.427 209.439 89.7972 198.681 89.7972 166.407M212.242 372.156C197.761 374.846 168.798 387.487 168.798 416.534C171.428 432.671 183.8 464.138 212.242 460.911C225.41 460.911 253.324 452.036 259.644 416.534C258.325 401.741 246.998 372.156 212.242 372.156Z" stroke="black" stroke-opacity="0.2"/>
</svg>
