<svg width="163" height="70" viewBox="0 0 163 70" fill="none" xmlns="http://www.w3.org/2000/svg">
<rect width="163" height="69.6873" rx="10" fill="#2E2D44"/>
<path d="M77.6478 29.8662C77.5228 29.4836 77.358 29.1408 77.1535 28.8378C76.9527 28.531 76.7122 28.2696 76.4319 28.0537C76.1554 27.8378 75.841 27.673 75.4887 27.5594C75.1365 27.4458 74.7501 27.3889 74.3296 27.3889C73.6402 27.3889 73.0133 27.567 72.449 27.923C71.8846 28.2791 71.4357 28.8037 71.1024 29.4969C70.769 30.1901 70.6024 31.0405 70.6024 32.048C70.6024 33.0556 70.7709 33.906 71.108 34.5992C71.4452 35.2923 71.9016 35.817 72.4774 36.173C73.0531 36.5291 73.7008 36.7071 74.4205 36.7071C75.0872 36.7071 75.6743 36.5651 76.1819 36.281C76.6933 35.9931 77.091 35.5878 77.3751 35.0651C77.663 34.5386 77.8069 33.9192 77.8069 33.2071L78.2387 33.298H74.7387V32.048H79.1705V33.298C79.1705 34.2564 78.966 35.0897 78.5569 35.798C78.1516 36.5064 77.591 37.0556 76.8751 37.4458C76.163 37.8321 75.3448 38.0253 74.4205 38.0253C73.3902 38.0253 72.4849 37.7829 71.7046 37.298C70.9281 36.8132 70.3221 36.1238 69.8865 35.2298C69.4546 34.3359 69.2387 33.2753 69.2387 32.048C69.2387 31.1276 69.3618 30.2999 69.608 29.5651C69.858 28.8264 70.2103 28.1977 70.6649 27.6787C71.1194 27.1598 71.6573 26.762 72.2785 26.4855C72.8997 26.209 73.5834 26.0708 74.3296 26.0708C74.9433 26.0708 75.5152 26.1636 76.0455 26.3492C76.5796 26.531 77.055 26.7905 77.4717 27.1276C77.8921 27.4609 78.2425 27.8605 78.5228 28.3264C78.8031 28.7886 78.9963 29.3018 79.1024 29.8662H77.6478ZM85.0612 38.048C84.2203 38.048 83.4949 37.8624 82.885 37.4912C82.279 37.1162 81.8112 36.5935 81.4816 35.923C81.1559 35.2488 80.993 34.4647 80.993 33.5708C80.993 32.6768 81.1559 31.8889 81.4816 31.2071C81.8112 30.5215 82.2695 29.9874 82.8566 29.6048C83.4475 29.2185 84.1369 29.0253 84.9248 29.0253C85.3794 29.0253 85.8282 29.1011 86.2714 29.2526C86.7146 29.4041 87.118 29.6503 87.4816 29.9912C87.8453 30.3283 88.135 30.7753 88.3509 31.3321C88.5669 31.8889 88.6748 32.5745 88.6748 33.3889V33.9571H81.9475V32.798H87.3112C87.3112 32.3056 87.2127 31.8662 87.0157 31.4798C86.8225 31.0935 86.546 30.7886 86.1862 30.5651C85.8301 30.3416 85.4097 30.2298 84.9248 30.2298C84.3907 30.2298 83.9286 30.3624 83.5384 30.6276C83.1521 30.8889 82.8547 31.2298 82.6464 31.6503C82.4381 32.0708 82.3339 32.5215 82.3339 33.0026V33.7753C82.3339 34.4344 82.4475 34.9931 82.6748 35.4514C82.9059 35.906 83.2259 36.2526 83.635 36.4912C84.0441 36.7261 84.5195 36.8435 85.0612 36.8435C85.4134 36.8435 85.7316 36.7942 86.0157 36.6958C86.3036 36.5935 86.5517 36.442 86.76 36.2412C86.9684 36.0367 87.1294 35.7829 87.243 35.4798L88.5384 35.8435C88.4021 36.2829 88.1729 36.6692 87.8509 37.0026C87.529 37.3321 87.1312 37.5897 86.6578 37.7753C86.1843 37.9571 85.6521 38.048 85.0612 38.048ZM94.51 29.1389V30.2753H89.9873V29.1389H94.51ZM91.3055 27.048H92.6464V35.3662C92.6464 35.745 92.7013 36.0291 92.8112 36.2185C92.9248 36.4041 93.0687 36.5291 93.243 36.5935C93.421 36.6541 93.6085 36.6844 93.8055 36.6844C93.9532 36.6844 94.0744 36.6768 94.1691 36.6617C94.2638 36.6427 94.3396 36.6276 94.3964 36.6162L94.6691 37.8208C94.5782 37.8548 94.4513 37.8889 94.2884 37.923C94.1256 37.9609 93.9191 37.9798 93.6691 37.9798C93.2903 37.9798 92.9191 37.8984 92.5555 37.7355C92.1956 37.5727 91.8964 37.3245 91.6578 36.9912C91.4229 36.6579 91.3055 36.2374 91.3055 35.7298V27.048ZM96.8964 26.2298H98.5782L102.533 35.8889H102.669L106.624 26.2298H108.305V37.8662H106.987V29.0253H106.874L103.237 37.8662H101.965L98.3282 29.0253H98.2146V37.8662H96.8964V26.2298ZM114.608 38.048C113.767 38.048 113.042 37.8624 112.432 37.4912C111.826 37.1162 111.358 36.5935 111.028 35.923C110.703 35.2488 110.54 34.4647 110.54 33.5708C110.54 32.6768 110.703 31.8889 111.028 31.2071C111.358 30.5215 111.816 29.9874 112.403 29.6048C112.994 29.2185 113.684 29.0253 114.472 29.0253C114.926 29.0253 115.375 29.1011 115.818 29.2526C116.261 29.4041 116.665 29.6503 117.028 29.9912C117.392 30.3283 117.682 30.7753 117.898 31.3321C118.114 31.8889 118.222 32.5745 118.222 33.3889V33.9571H111.494V32.798H116.858C116.858 32.3056 116.76 31.8662 116.563 31.4798C116.369 31.0935 116.093 30.7886 115.733 30.5651C115.377 30.3416 114.957 30.2298 114.472 30.2298C113.938 30.2298 113.475 30.3624 113.085 30.6276C112.699 30.8889 112.402 31.2298 112.193 31.6503C111.985 32.0708 111.881 32.5215 111.881 33.0026V33.7753C111.881 34.4344 111.994 34.9931 112.222 35.4514C112.453 35.906 112.773 36.2526 113.182 36.4912C113.591 36.7261 114.066 36.8435 114.608 36.8435C114.96 36.8435 115.278 36.7942 115.563 36.6958C115.85 36.5935 116.099 36.442 116.307 36.2412C116.515 36.0367 116.676 35.7829 116.79 35.4798L118.085 35.8435C117.949 36.2829 117.72 36.6692 117.398 37.0026C117.076 37.3321 116.678 37.5897 116.205 37.7753C115.731 37.9571 115.199 38.048 114.608 38.048ZM123.557 38.048C122.83 38.048 122.188 37.8643 121.631 37.4969C121.074 37.1257 120.638 36.603 120.324 35.9287C120.01 35.2507 119.852 34.4495 119.852 33.5253C119.852 32.6086 120.01 31.8132 120.324 31.1389C120.638 30.4647 121.076 29.9439 121.636 29.5764C122.197 29.209 122.845 29.0253 123.58 29.0253C124.148 29.0253 124.597 29.12 124.926 29.3094C125.26 29.495 125.513 29.7071 125.688 29.9458C125.866 30.1806 126.004 30.3738 126.102 30.5253H126.216V26.2298H127.557V37.8662H126.261V36.5253H126.102C126.004 36.6844 125.864 36.8852 125.682 37.1276C125.5 37.3662 125.241 37.5802 124.903 37.7696C124.566 37.9552 124.118 38.048 123.557 38.048ZM123.739 36.8435C124.277 36.8435 124.731 36.7033 125.102 36.423C125.474 36.1389 125.756 35.7469 125.949 35.2469C126.142 34.7431 126.239 34.1617 126.239 33.5026C126.239 32.8511 126.144 32.281 125.955 31.7923C125.765 31.2999 125.485 30.9173 125.114 30.6446C124.743 30.3681 124.284 30.2298 123.739 30.2298C123.171 30.2298 122.697 30.3757 122.318 30.6673C121.943 30.9552 121.661 31.3473 121.472 31.8435C121.286 32.3359 121.193 32.8889 121.193 33.5026C121.193 34.1238 121.288 34.6882 121.477 35.1958C121.671 35.6995 121.955 36.1011 122.33 36.4003C122.708 36.6958 123.178 36.8435 123.739 36.8435ZM130.199 37.8662V29.1389H131.54V37.8662H130.199ZM130.881 27.6844C130.619 27.6844 130.394 27.5954 130.205 27.4173C130.019 27.2393 129.926 27.0253 129.926 26.7753C129.926 26.5253 130.019 26.3113 130.205 26.1333C130.394 25.9552 130.619 25.8662 130.881 25.8662C131.142 25.8662 131.366 25.9552 131.551 26.1333C131.741 26.3113 131.835 26.5253 131.835 26.7753C131.835 27.0253 131.741 27.2393 131.551 27.4173C131.366 27.5954 131.142 27.6844 130.881 27.6844ZM136.564 38.0708C136.011 38.0708 135.509 37.9666 135.058 37.7583C134.608 37.5461 134.25 37.2412 133.984 36.8435C133.719 36.442 133.587 35.9571 133.587 35.3889C133.587 34.8889 133.685 34.4836 133.882 34.173C134.079 33.8586 134.342 33.6124 134.672 33.4344C135.002 33.2564 135.365 33.1238 135.763 33.0367C136.164 32.9458 136.568 32.8738 136.973 32.8208C137.503 32.7526 137.933 32.7014 138.263 32.6673C138.596 32.6295 138.839 32.567 138.99 32.4798C139.145 32.3927 139.223 32.2412 139.223 32.0253V31.9798C139.223 31.4192 139.07 30.9836 138.763 30.673C138.46 30.3624 138 30.2071 137.382 30.2071C136.742 30.2071 136.24 30.3473 135.877 30.6276C135.513 30.9079 135.257 31.2071 135.109 31.5253L133.837 31.0708C134.064 30.5405 134.367 30.1276 134.746 29.8321C135.128 29.5329 135.545 29.3245 135.996 29.2071C136.45 29.0859 136.897 29.0253 137.337 29.0253C137.617 29.0253 137.939 29.0594 138.303 29.1276C138.67 29.192 139.024 29.3264 139.365 29.531C139.71 29.7355 139.996 30.0442 140.223 30.4571C140.45 30.87 140.564 31.423 140.564 32.1162V37.8662H139.223V36.6844H139.155C139.064 36.8738 138.912 37.0764 138.7 37.2923C138.488 37.5083 138.206 37.692 137.854 37.8435C137.502 37.995 137.072 38.0708 136.564 38.0708ZM136.769 36.8662C137.299 36.8662 137.746 36.762 138.109 36.5537C138.477 36.3454 138.753 36.0764 138.939 35.7469C139.128 35.4173 139.223 35.0708 139.223 34.7071V33.4798C139.166 33.548 139.041 33.6105 138.848 33.6673C138.659 33.7204 138.439 33.7677 138.189 33.8094C137.943 33.8473 137.702 33.8814 137.467 33.9117C137.236 33.9382 137.049 33.9609 136.905 33.9798C136.556 34.0253 136.231 34.0992 135.928 34.2014C135.628 34.2999 135.386 34.4495 135.2 34.6503C135.019 34.8473 134.928 35.1162 134.928 35.4571C134.928 35.923 135.1 36.2753 135.445 36.5139C135.793 36.7488 136.234 36.8662 136.769 36.8662Z" fill="white"/>
<path d="M34.1416 38.6548H40.7497" stroke="#F749FB"/>
<line x1="34.1416" y1="26.7217" x2="40.7497" y2="26.7217" stroke="#F749FB"/>
<line x1="11.0137" y1="57.21" x2="31.9393" y2="57.21" stroke="#F749FB"/>
<line x1="42.9531" y1="57.21" x2="63.8788" y2="57.21" stroke="#F749FB"/>
<path d="M22.0534 14.7922C21.7297 12.921 24.2872 9.08517 37.1071 8.71094C43.0963 9.17872 54.5892 11.0499 52.6468 14.7922M22.0534 14.7922C22.0534 18.5345 32.0892 20.0937 37.1071 20.4056C47.9842 20.4056 51.999 16.6633 52.6468 14.7922M22.0534 14.7922V27.8902M52.6468 14.7922V28.358M37.1071 45.6661C26.6177 45.2918 22.7008 42.3916 22.0534 40.9882V27.8902M37.1071 45.6661C41.6395 45.3542 51.0929 44.1691 52.6468 41.9238V28.358M37.1071 45.6661V51.7473M52.6468 28.358C51.0278 30.0732 45.6533 33.4101 37.1071 33.0358C32.0892 32.8799 22.0534 31.6325 22.0534 27.8902M37.1071 51.7473C35.3267 52.0591 31.7659 53.5249 31.7659 56.8929C32.0894 58.7641 33.6104 62.4128 37.1071 62.0386C38.7259 62.0386 42.1578 61.0095 42.9348 56.8929C42.7726 55.1777 41.38 51.7473 37.1071 51.7473Z" stroke="#F749FB"/>
</svg>
